<svg width="23" height="24" viewBox="0 0 23 24" fill="none" xmlns="http://www.w3.org/2000/svg">
<path d="M6.70684 0C3.0089 0 0 3.14157 0 7.00125L0 17.0006C0 20.8598 3.01067 24 6.70953 24H16.2923C19.9907 24 23 20.8584 23 16.9987V6.99844C23 3.13972 19.9893 0 16.2905 0L6.70684 0ZM18.4 3.84C18.9078 3.84 19.32 4.27008 19.32 4.8C19.32 5.32992 18.9078 5.76 18.4 5.76C17.8922 5.76 17.48 5.32992 17.48 4.8C17.48 4.27008 17.8922 3.84 18.4 3.84ZM11.5 5.76C14.7982 5.76 17.48 8.5584 17.48 12C17.48 15.4416 14.7977 18.24 11.5 18.24C8.2018 18.24 5.52 15.4411 5.52 12C5.52 8.55888 8.2018 5.76 11.5 5.76ZM11.5 7.68C9.21334 7.68 7.36 9.61392 7.36 12C7.36 14.3861 9.21334 16.32 11.5 16.32C13.7867 16.32 15.64 14.3861 15.64 12C15.64 9.61392 13.7867 7.68 11.5 7.68Z" fill="#171717"/>
</svg>
