<svg width="20" height="20" viewBox="0 0 20 20" fill="none" xmlns="http://www.w3.org/2000/svg">
<path d="M-7.46167e-07 2.92975L-1.28061e-07 17.0704C-5.74539e-08 18.6857 1.31439 20.0001 2.92969 20.0001L17.0703 20.0001C18.6856 20.0001 20 18.6857 20 17.0704L20 11.1719L12.9297 11.1719L12.9297 13.5157L9.41406 13.5157L9.41406 11.1719L7.03125 11.1719C5.09262 11.1719 3.51562 9.59494 3.51562 7.65631L3.51562 4.10162L7.03125 4.10162L7.03125 7.65631L9.41406 7.65631L9.41406 4.10162L12.9297 4.68756L12.9297 7.65631L20 7.65631L20 2.92975C20 1.31445 18.6856 6.02184e-05 17.0703 6.0289e-05L2.92969 6.09071e-05C1.31439 6.09777e-05 -8.16774e-07 1.31445 -7.46167e-07 2.92975Z" fill="white"/>
</svg>
