<svg width="19" height="20" viewBox="0 0 19 20" fill="none" xmlns="http://www.w3.org/2000/svg">
<path d="M-4.37114e-07 9.99957C-1.95608e-07 15.5246 4.36167 19.9996 9.74107 19.9996C14.0457 19.9996 17.6962 17.1346 18.9832 13.1621C19.0749 12.6621 18.7734 12.4787 18.5148 12.4787C18.2835 12.4787 17.6706 12.4871 16.8585 12.4912C17.4459 15.2729 15.5517 15.8596 15.5517 15.8596C14.4274 16.3146 14.1267 16.9721 14.1267 16.9721C13.5228 17.8779 13.5352 16.9021 13.5352 16.9021C13.603 15.8979 14.5389 15.3704 14.5389 15.3704C16.0283 14.4787 15.5979 13.0296 15.3493 12.4579C14.719 12.3679 14.2903 12.1104 14.0466 11.8246C13.8029 14.0454 12.9652 16.3796 9.23304 16.3796C8.16988 16.3796 7.30085 15.9921 6.61933 15.3504C6.37316 15.4629 5.3827 15.8004 4.04116 15.2629C4.04116 15.2629 3.78012 14.4254 5.03988 12.5129C4.82345 11.7129 4.71606 10.8629 4.7111 10.0129C4.71606 9.16291 4.82345 8.31291 5.03988 7.51291C3.78012 5.61291 4.04116 4.77541 4.04116 4.77541C5.3827 4.23791 6.37316 4.57541 6.61933 4.67541C7.30085 4.03791 8.16988 3.65041 9.23304 3.65041C12.9752 3.65041 13.7987 5.98791 14.0383 8.21291C14.3307 7.86291 14.928 7.53791 15.8408 7.53791C17.1444 7.5379 18.1918 7.55041 18.5082 7.55041C18.7635 7.55041 19.0683 7.37541 18.9708 6.86291C17.692 2.86207 14.0391 -0.00042786 9.74107 -0.000427672C4.36167 -0.000427437 -6.7851e-07 4.47707 -4.37114e-07 9.99957Z" fill="white"/>
</svg>
