<svg width="20" height="20" viewBox="0 0 20 20" fill="none" xmlns="http://www.w3.org/2000/svg">
<path d="M0 14.168C0 17.3836 2.61798 20 5.83438 20H14.1672C17.3832 20 20 17.382 20 14.1656V5.83281C20 2.61681 17.382 -2.98023e-07 14.1656 -2.98023e-07H5.83203C2.61643 -2.98023e-07 0 2.61798 0 5.83438V14.168ZM3.2 4C3.2 3.5584 3.5584 3.2 4 3.2C4.4416 3.2 4.8 3.5584 4.8 4C4.8 4.4416 4.4416 4.8 4 4.8C3.5584 4.8 3.2 4.4416 3.2 4ZM4.8 10C4.8 7.132 7.132 4.8 10 4.8C12.868 4.8 15.2 7.1324 15.2 10C15.2 12.868 12.8676 15.2 10 15.2C7.1324 15.2 4.8 12.868 4.8 10ZM6.4 10C6.4 11.9884 8.0116 13.6 10 13.6C11.9884 13.6 13.6 11.9884 13.6 10C13.6 8.0116 11.9884 6.4 10 6.4C8.0116 6.4 6.4 8.0116 6.4 10Z" fill="white"/>
</svg>
